<svg xmlns="http://www.w3.org/2000/svg" viewBox="0 0 100 100" width="100px" height="100px"><path fill="#78cdd4" d="M76,84H39c-4.418,0-8-3.582-8-8V39c0-4.418,3.582-8,8-8h37c4.418,0,8,3.582,8,8v37C84,80.418,80.418,84,76,84z"/><path fill="#a1d3a2" d="M61,69H24c-4.418,0-8-3.582-8-8V24c0-4.418,3.582-8,8-8h37c4.418,0,8,3.582,8,8v37C69,65.418,65.418,69,61,69z"/><path fill="#fefdef" d="M37.5,53.5c-0.481,0-0.964-0.173-1.346-0.521l-8-8c-0.817-0.742-0.877-2.008-0.134-2.825c0.743-0.815,2.007-0.878,2.825-0.134l6.628,6.753l16.653-16.728c0.802-0.758,2.067-0.724,2.827,0.081c0.759,0.803,0.723,2.068-0.081,2.827l-18,18C38.488,53.317,37.994,53.5,37.5,53.5z"/><path fill="#1f212b" d="M76,85H39c-4.962,0-9-4.037-9-9v-2c0-0.553,0.448-1,1-1s1,0.447,1,1v2c0,3.859,3.14,7,7,7h37c3.86,0,7-3.141,7-7V39c0-3.859-3.14-7-7-7h-2c-0.552,0-1-0.447-1-1s0.448-1,1-1h2c4.962,0,9,4.037,9,9v37C85,80.963,80.962,85,76,85z"/><path fill="#1f212b" d="M60.5 65h-36c-2.481 0-4.5-2.019-4.5-4.5v-36c0-2.481 2.019-4.5 4.5-4.5h29c.276 0 .5.224.5.5S53.776 21 53.5 21h-29c-1.93 0-3.5 1.57-3.5 3.5v36c0 1.93 1.57 3.5 3.5 3.5h36c1.93 0 3.5-1.57 3.5-3.5V43c0-.276.224-.5.5-.5S65 42.724 65 43v17.5C65 62.981 62.981 65 60.5 65zM64.5 40c-.276 0-.5-.224-.5-.5v-4c0-.276.224-.5.5-.5s.5.224.5.5v4C65 39.776 64.776 40 64.5 40zM64.5 34c-.276 0-.5-.224-.5-.5v-2c0-.276.224-.5.5-.5s.5.224.5.5v2C65 33.776 64.776 34 64.5 34z"/><g><path fill="#1f212b" d="M61,70H24c-4.962,0-9-4.037-9-9V24c0-4.963,4.038-9,9-9h37c4.962,0,9,4.037,9,9v37C70,65.963,65.962,70,61,70z M24,17c-3.86,0-7,3.141-7,7v37c0,3.859,3.14,7,7,7h37c3.86,0,7-3.141,7-7V24c0-3.859-3.14-7-7-7H24z"/></g><g><path fill="#1f212b" d="M37.5,54c-0.624,0-1.222-0.231-1.683-0.651l-8.016-8.016c-0.477-0.432-0.767-1.047-0.798-1.714c-0.031-0.667,0.198-1.307,0.647-1.801c0.93-1.019,2.514-1.092,3.531-0.167l6.293,6.413l16.298-16.371C54.27,31.224,54.92,30.997,55.57,31c0.668,0.019,1.288,0.297,1.747,0.783c0.459,0.485,0.701,1.12,0.682,1.788c-0.019,0.667-0.297,1.288-0.783,1.747l-17.989,17.99C38.75,53.758,38.141,54,37.5,54z M29.509,41.999c-0.409,0-0.82,0.165-1.119,0.493c-0.269,0.296-0.407,0.68-0.388,1.08c0.019,0.4,0.192,0.769,0.488,1.038l8.018,8.017c0.526,0.477,1.469,0.484,2.022-0.036l17.989-17.99c0.302-0.285,0.469-0.657,0.48-1.058c0.011-0.4-0.134-0.781-0.409-1.072c-0.275-0.292-0.648-0.458-1.049-0.47c-0.392-0.019-0.78,0.133-1.071,0.409L37.828,49.126c-0.094,0.094-0.222,0.147-0.354,0.147h-0.001c-0.133,0-0.261-0.054-0.354-0.148l-6.629-6.753C30.215,42.123,29.863,41.999,29.509,41.999z"/></g></svg>