<svg fill="#000000" xmlns="http://www.w3.org/2000/svg" viewBox="0 0 64 64" width="64px" height="64px"><path d="M 59 4 C 58.742188 4 58.484375 4.09375 58.289063 4.289063 L 56.289063 6.300781 C 55.898438 6.109375 55.460938 6 55 6 L 9 6 C 7.351563 6 6 7.351563 6 9 L 6 55 C 6 56.648438 7.351563 58 9 58 L 55 58 C 56.648438 58 58 56.648438 58 55 L 58 15.421875 L 63.710938 9.710938 C 64.101563 9.320313 64.101563 8.679688 63.710938 8.289063 L 59.710938 4.289063 C 59.515625 4.09375 59.257813 4 59 4 Z M 59 6.410156 L 61.589844 9 L 32 38.589844 L 19.410156 26 L 22 23.410156 L 31.289063 32.710938 C 31.679688 33.101563 32.320313 33.101563 32.710938 32.710938 L 50 15.410156 Z M 9 8 L 54.578125 8 L 50.511719 12.070313 C 50.351563 12.019531 50.179688 12 50 12 L 14 12 C 12.898438 12 12 12.898438 12 14 L 12 50 C 12 51.101563 12.898438 52 14 52 L 17 52 C 17.550781 52 18 51.550781 18 51 C 18 50.449219 17.550781 50 17 50 L 14 50 L 14 14 L 48.578125 14 L 32 30.589844 L 22.710938 21.289063 C 22.320313 20.898438 21.679688 20.898438 21.289063 21.289063 L 17.289063 25.289063 C 16.898438 25.679688 16.898438 26.320313 17.289063 26.710938 L 31.289063 40.710938 C 31.488281 40.902344 31.738281 41 32 41 C 32.261719 41 32.511719 40.902344 32.710938 40.710938 L 50 23.421875 L 50 50 L 47 50 C 46.449219 50 46 50.449219 46 51 C 46 51.550781 46.449219 52 47 52 L 50 52 C 51.101563 52 52 51.101563 52 50 L 52 21.421875 L 56 17.421875 L 56 55 C 56 55.550781 55.550781 56 55 56 L 9 56 C 8.449219 56 8 55.550781 8 55 L 8 9 C 8 8.449219 8.449219 8 9 8 Z M 22 48 C 21.445313 48 21 48.449219 21 49 L 21 51 C 21 51.550781 21.445313 52 22 52 C 22.554688 52 23 51.550781 23 51 L 23 49 C 23 48.449219 22.554688 48 22 48 Z M 27 48 C 26.445313 48 26 48.449219 26 49 L 26 51 C 26 51.550781 26.445313 52 27 52 C 27.554688 52 28 51.550781 28 51 L 28 49 C 28 48.449219 27.554688 48 27 48 Z M 32 48 C 31.445313 48 31 48.449219 31 49 L 31 51 C 31 51.550781 31.445313 52 32 52 C 32.554688 52 33 51.550781 33 51 L 33 49 C 33 48.449219 32.554688 48 32 48 Z M 37 48 C 36.445313 48 36 48.449219 36 49 L 36 51 C 36 51.550781 36.445313 52 37 52 C 37.554688 52 38 51.550781 38 51 L 38 49 C 38 48.449219 37.554688 48 37 48 Z M 42 48 C 41.445313 48 41 48.449219 41 49 L 41 51 C 41 51.550781 41.445313 52 42 52 C 42.554688 52 43 51.550781 43 51 L 43 49 C 43 48.449219 42.554688 48 42 48 Z"/></svg>